<svg xmlns="http://www.w3.org/2000/svg" viewBox="0 0 500 500"><g id="freepik--Floor--inject-124"><ellipse id="freepik--floor--inject-124" cx="249.48" cy="351.94" rx="244.24" ry="135.79" style="fill:#f5f5f5"></ellipse></g><g id="freepik--Clouds--inject-124"><g id="freepik--clouds--inject-124"><path id="freepik--Cloud--inject-124" d="M105.44,42.87l-8.77,5.06a9.17,9.17,0,0,0,.08-1.16V44.23c0-4.52-3.18-6.35-7.09-4.09a13.57,13.57,0,0,0-4.23,4.06c-.64-5.68-5.1-7.8-10.52-4.67-5.85,3.38-10.6,11.6-10.6,18.37v3.8a9.93,9.93,0,0,0,.9,4.4l-7.29,4.21A8.68,8.68,0,0,0,54,77.12c0,2.5,1.76,3.52,3.93,2.27L105.44,52a8.67,8.67,0,0,0,3.94-6.81C109.38,42.63,107.62,41.62,105.44,42.87Z" style="fill:#ebebeb"></path><path id="freepik--cloud--inject-124" d="M157.25,60.87l-6.87,4c0-.3.06-.61.06-.91v-2c0-3.54-2.49-5-5.56-3.21a10.79,10.79,0,0,0-3.32,3.19c-.5-4.46-4-6.12-8.24-3.67-4.6,2.65-8.32,9.1-8.32,14.41v3a7.84,7.84,0,0,0,.7,3.45L120,82.39a6.81,6.81,0,0,0-3.08,5.34c0,2,1.38,2.76,3.08,1.78L157.25,68a6.83,6.83,0,0,0,3.09-5.35C160.34,60.69,159,59.89,157.25,60.87Z" style="fill:#ebebeb"></path></g></g><g id="freepik--Shadows--inject-124"><ellipse id="freepik--Shadow--inject-124" cx="366.19" cy="261.41" rx="32.1" ry="18.53" style="fill:#e0e0e0"></ellipse><path id="freepik--shadow--inject-124" d="M392.13,356.6c6.73,1.84,13.9,1.3,20.76,0,10.13-1.88,20.7-5,30.55-.26a53.45,53.45,0,0,1,9.06,6,48.41,48.41,0,0,0,9.1,5.94,16.42,16.42,0,0,0,10.6,1.45c7.15-1.75,8.88-7,8.93-12.62a29.64,29.64,0,0,0-2-10.79c-5.36-12.37-19.24-15.56-31.69-16.58-13.72-1.14-27.57,1.75-40.52,6.1-5.64,1.89-11.26,4.11-16.06,7.62a10.82,10.82,0,0,0-4,4.63C385.41,351.94,388.66,355.65,392.13,356.6Z" style="fill:#e0e0e0"></path><path id="freepik--shadow--inject-124" d="M48.91,372.8,238.77,263.19c8.86-5.12,23.22-5.12,32.08,0l65.72,37.94c8.86,5.12,8.86,13.41,0,18.52L300,340.8l92.55,53.43c13.29,7.67,13.29,20.11,0,27.78l-42.16,24.34c-13.29,7.68-34.83,7.68-48.12,0l-92.55-53.43-62.95,36.35c-8.86,5.11-23.22,5.11-32.08,0L48.91,391.32C40.06,386.21,40.06,377.92,48.91,372.8Z" style="fill:#e0e0e0"></path></g><g id="freepik--Plant--inject-124"><g id="freepik--Plants--inject-124"><path d="M72,363.23l-8,4.61c-.43-24.71-15-43.35-22-52.92-7.09-9.74,2.71-15.58,11-11.3s15,15.24,17.73,29.48C73.09,345.28,72.37,359.57,72,363.23Z" style="fill:#BA68C8"></path><path d="M72,363.23l-8,4.61c-.43-24.71-15-43.35-22-52.92-7.09-9.74,2.71-15.58,11-11.3s15,15.24,17.73,29.48C73.09,345.28,72.37,359.57,72,363.23Z" style="fill:#fff;opacity:0.25"></path><path d="M68.26,361.68h.1a.5.5,0,0,0,.47-.55c-.77-31.11-10.11-46.68-20.91-54.6a.45.45,0,0,0-.67.15.57.57,0,0,0,.14.75C58,315.24,67.1,330.5,67.86,361.16A.53.53,0,0,0,68.26,361.68Z" style="fill:#fff"></path><path d="M30.7,334.25c.16,1.72,1.41,3,2.61,4.15s2.49,2.31,2.82,4c.66,3.42-3,6.57-2.2,9.94a5.25,5.25,0,0,0,2.57,3.18,30.91,30.91,0,0,0,3,1.44,12.18,12.18,0,0,0,1.52.4,6.76,6.76,0,0,1,4.13,2.06c1.69,2,1.47,5.13,2.07,7.81.72,3.2,2.43,5.08,6.36,6.6l13.67-7.89c3.36-3.79,4.32-10.84,1.23-15.25-1.85-2.64-5.32-3-7.07-5.62-1.57-2.37-.66-5.8-1.62-8.54s-3.53-3.68-5.94-4.15-5,.64-7.33-.31-4.55-2.5-7-3.18a7.5,7.5,0,0,0-7,1.31A5,5,0,0,0,30.7,334.25Z" style="fill:#BA68C8"></path><path d="M30.7,334.25c.16,1.72,1.41,3,2.61,4.15s2.49,2.31,2.82,4c.66,3.42-3,6.57-2.2,9.94a5.25,5.25,0,0,0,2.57,3.18,30.91,30.91,0,0,0,3,1.44,12.18,12.18,0,0,0,1.52.4,6.76,6.76,0,0,1,4.13,2.06c1.69,2,1.47,5.13,2.07,7.81.72,3.2,2.43,5.08,6.36,6.6l13.67-7.89c3.36-3.79,4.32-10.84,1.23-15.25-1.85-2.64-5.32-3-7.07-5.62-1.57-2.37-.66-5.8-1.62-8.54s-3.53-3.68-5.94-4.15-5,.64-7.33-.31-4.55-2.5-7-3.18a7.5,7.5,0,0,0-7,1.31A5,5,0,0,0,30.7,334.25Z" style="fill:#fff;opacity:0.6000000000000001"></path><path d="M55.78,347.72a.31.31,0,0,0-.11-.16c-6.32-9.95-16.23-14.67-19.58-15.5a.36.36,0,0,0-.42.3.39.39,0,0,0,.27.46c3.17.79,12.37,5.15,18.57,14.27a17.74,17.74,0,0,0-15.43,1.49.41.41,0,0,0-.1.54.32.32,0,0,0,.28.17.25.25,0,0,0,.2-.06,17.09,17.09,0,0,1,15.76-1.05,35.18,35.18,0,0,1,5.26,20.06.38.38,0,0,0,.31.4h0a.36.36,0,0,0,.36-.38A35.93,35.93,0,0,0,55.78,347.72Z" style="fill:#fff"></path></g></g><g id="freepik--Spotlight--inject-124"><g id="freepik--Light--inject-124"><g id="freepik--Tripod--inject-124"><path d="M369.15,222.53a.62.62,0,0,0-.37-.51,2,2,0,0,0-1.77,0,.62.62,0,0,0-.37.51L390,258.65h0a.47.47,0,0,0,.26.35,1.38,1.38,0,0,0,1.25,0,.45.45,0,0,0,.26-.35h0Z" style="fill:#37474f"></path><path d="M340.26,258.65h0a.45.45,0,0,0,.25.35,1.4,1.4,0,0,0,1.26,0,.47.47,0,0,0,.26-.35h0l23.4-36.12a.62.62,0,0,0-.37-.51,2,2,0,0,0-1.77,0,.62.62,0,0,0-.37.51Z" style="fill:#37474f"></path><path d="M367,222.61a2.16,2.16,0,0,0-1.95,0,.68.68,0,0,0-.4.56l.4,49.09h0a.48.48,0,0,0,.29.38,1.5,1.5,0,0,0,1.37,0,.48.48,0,0,0,.29-.38h0l.4-49.09A.68.68,0,0,0,367,222.61Z" style="fill:#37474f"></path><path d="M372.93,221.75a4.62,4.62,0,0,0-1.74-1.6,11.33,11.33,0,0,0-10.27,0,4.62,4.62,0,0,0-1.74,1.6h-.39v1.59h0a3.66,3.66,0,0,0,2.12,2.85,11.4,11.4,0,0,0,10.27,0,3.68,3.68,0,0,0,2.13-2.85h0v-1.59Z" style="fill:#37474f"></path><path d="M371.19,218.79a11.33,11.33,0,0,0-10.27,0c-2.84,1.63-2.84,4.29,0,5.93a11.33,11.33,0,0,0,10.27,0C374,223.08,374,220.42,371.19,218.79Z" style="fill:#455a64"></path><path d="M367.72,221.43V108h-3.33V221.43a.83.83,0,0,0,.49.68,2.63,2.63,0,0,0,2.35,0A.83.83,0,0,0,367.72,221.43Z" style="fill:#263238"></path><rect x="364.36" y="252.13" width="21.02" height="1.05" transform="translate(-76.69 231.2) rotate(-31.26)" style="fill:#37474f"></rect><rect x="356.45" y="242.15" width="1.05" height="21.02" transform="translate(-44.1 427.04) rotate(-58.79)" style="fill:#37474f"></rect></g><polygon points="328.98 117.1 383.62 148.65 383.62 85.56 328.98 54.01 328.98 117.1" style="fill:#37474f"></polygon><polygon points="330.78 116.07 330.77 57.12 381.83 86.59 381.83 145.54 330.78 116.07" style="fill:#fafafa"></polygon><polygon points="383.62 85.56 387.26 83.45 332.62 51.91 328.98 54.01 383.62 85.56" style="fill:#455a64"></polygon><polygon points="387.26 83.45 387.26 146.54 383.62 148.65 383.62 85.56 387.26 83.45" style="fill:#37474f"></polygon><polygon points="394.55 79.25 387.26 83.45 387.26 146.54 394.55 112.9 394.55 79.25" style="fill:#263238"></polygon><polygon points="332.62 51.91 365.41 62.42 394.55 79.25 387.26 83.45 332.62 51.91" style="fill:#37474f"></polygon><polygon points="383.62 85.56 384.19 148.32 383.62 148.65 383.62 85.56" style="fill:#263238"></polygon></g></g><g id="freepik--camera--inject-124"><g id="freepik--camera--inject-124"><path d="M335.79,314.77V166.05h0A8.77,8.77,0,0,0,332,159l-16.5-11.9-56.93-32.87c-7.29-4.21-19.1-4.21-26.38,0L60.62,213.29c-3.63,2.1-5.45,4.84-5.46,7.59h0V362.65a26.2,26.2,0,0,0,13.1,22.7L90,397.92a63.27,63.27,0,0,0,63.29,0l129.22-74.61,12.38,7.15c6.83,3.94,20.68,2.35,30.93-3.57,6.46-3.73,9.94-8.28,9.93-12.12Z" style="fill:#37474f"></path><path d="M55.16,220.88h0V362.65a26.2,26.2,0,0,0,13.1,22.7L90,397.92a63.28,63.28,0,0,0,31.64,8.48V249.49l-61.83-35.7C56.74,215.81,55.17,218.34,55.16,220.88Z" style="fill:#263238"></path><path d="M282.54,323.31l12.38,7.15c6.83,3.94,20.68,2.35,30.93-3.57,6.46-3.73,9.94-8.28,9.93-12.12h0V166.05h0A8.77,8.77,0,0,0,332,159l-16.5-11.9h0l-37.12,26.19V325.7Z" style="fill:#37474f"></path><path d="M294.92,330.46c3,1.73,7.37,2.4,12.18,2.09v-152l-.59-27.07-28.09,19.82V325.7l4.12-2.39Z" style="opacity:0.1"></path><path d="M292.85,181.62c8,4.6,22.75,3.53,33-2.38s13-15,6.19-20.25l-16.5-11.9-56.93-32.87c-7.29-4.21-19.1-4.21-26.38,0L60.62,213.29c-7.29,4.21-7.29,11,0,15.24l29.41,17a63.32,63.32,0,0,0,63.29,0l125.1-72.23Z" style="fill:#455a64"></path><path d="M247.94,177.63a4.93,4.93,0,0,0-1.85-1.86h0L171.84,132.9h0a5.05,5.05,0,0,0-5.06,0l-48.95,28.26a15.82,15.82,0,0,0-6.06,7.34l-6.59,19,74.25,42.86,74.25-42.86Z" style="fill:#455a64"></path><path d="M247.94,177.63a5,5,0,0,0-2-1.85l-2.42-1.33-4.84-2.66-9.64-5.4-19.2-10.95-19.08-11.15-9.5-5.65c-3.14-1.91-6.31-3.8-9.44-5.74,3.25,1.74,6.46,3.54,9.69,5.31l9.64,5.4,19.2,10.95,19.08,11.15,9.49,5.65,4.73,2.86,2.36,1.43A5,5,0,0,1,247.94,177.63Z" style="fill:#263238"></path><path d="M114.34,164.29a14.37,14.37,0,0,0-2.58,4.26l-6.59,19,74.25,42.87,8.71-5,7.34-14.28Z" style="fill:#37474f"></path><path d="M186,211.42a15.82,15.82,0,0,1,6.06-7.34l49-28.26a5.08,5.08,0,0,1,6.94,1.86l5.71,9.89v4.76L179.42,235.2v-4.76Z" style="fill:#263238"></path><path d="M238.66,182l-42.74,24.67a9.42,9.42,0,0,0-3.63,4.4l-3.72,10.73c-.55,1.59.18,2.2,1.64,1.36l54.16-31.27a3,3,0,0,0,1.11-4.16l-2.66-4.62A3.05,3.05,0,0,0,238.66,182Z" style="fill:#37474f"></path><g id="freepik--lens--inject-124"><path d="M254.09,219.05l-1-.08-.76,0-.89,0h-.23l-1.06,0H250c-.35,0-.69,0-1,.06l-1.21.12a47.38,47.38,0,0,0-18.06,6.35c-27,15.44-49.06,53.2-49.2,84.31A47.36,47.36,0,0,0,184,329c.46,1,.95,2,1.47,2.93.24.44.49.86.76,1.28l.12.19c.21.34.44.66.66,1l.14.2-6.93-9.27-.13-.16a5.07,5.07,0,0,1-.36-.45l-.35-.47c-.07-.1-.14-.19-.2-.29-3.88-5.45-6.07-13.13-6-22.68.12-28.7,20.44-63.54,45.38-77.79,7.24-4.14,14.07-6.08,20.13-6a26.58,26.58,0,0,1,3.13.19l.12,0Z" style="fill:#263238"></path><path d="M209,349.31a22.39,22.39,0,0,0,3,2.17l-17.29-10a.17.17,0,0,1-.09-.07l-.2-.11c-8.67-5.19-14-16.1-13.92-31.52.14-31.12,22.15-68.88,49.19-84.32,7.84-4.49,15.25-6.59,21.81-6.56a25.05,25.05,0,0,1,12.72,3.31L281.08,232c-8.72-4.62-20.59-3.76-33.69,3.72-27,15.46-49,53.2-49.19,84.34a50.85,50.85,0,0,0,2.07,15.32A29.12,29.12,0,0,0,209,349.31Z" style="fill:#37474f"></path><path d="M243.82,369.42a22.47,22.47,0,0,0,3,2.18l-17.29-10a.23.23,0,0,1-.09-.06l-.2-.11c-8.67-5.2-14-16.1-13.93-31.53.14-31.11,22.16-68.88,49.2-84.31,7.84-4.49,15.25-6.6,21.81-6.57A25.15,25.15,0,0,1,299,242.34l16.89,9.75c-8.72-4.63-20.59-3.76-33.69,3.71-27,15.46-49.05,53.2-49.19,84.34a50.92,50.92,0,0,0,2.07,15.33A29,29,0,0,0,243.82,369.42Z" style="fill:#37474f"></path><path d="M226.12,359.21a21.77,21.77,0,0,0,3,2.17l-17.3-10a.29.29,0,0,1-.08-.07l-.2-.11c-8.67-5.19-14-16.1-13.93-31.53.14-31.11,22.16-68.87,49.19-84.31,7.84-4.49,15.26-6.59,21.81-6.56a25.09,25.09,0,0,1,12.73,3.31l16.88,9.74c-8.72-4.63-20.58-3.76-33.69,3.72-27,15.45-49,53.2-49.19,84.33a51.18,51.18,0,0,0,2.08,15.33A29.12,29.12,0,0,0,226.12,359.21Z" style="fill:#455a64"></path><path d="M200.62,298.81l17.73,10.24c.09-.34.19-.67.28-1L200.9,297.81Zm2.55-8L220.9,301c.11-.32.23-.65.35-1l-17.73-10.24Zm3.11-7.73L224,293.27l.42-.92-17.72-10.24Zm3.64-7.42,17.73,10.23.47-.9L210.4,274.72Zm6.76,40.81L199,306.2c-.07.35-.14.7-.2,1.06l17.73,10.23C216.54,317.14,216.61,316.79,216.68,316.43Zm-16.92,18.82c.16.5.33,1,.5,1.47L218,347c-.17-.48-.33-1-.49-1.45Zm15.76-.42-17.73-10.24c0,.42.07.83.11,1.23l17.72,10.24C215.58,335.65,215.55,335.24,215.52,334.83Zm0-9.52L197.8,315.07c0,.38-.05.75-.07,1.13l17.73,10.24C215.48,326.06,215.51,325.69,215.53,325.31Zm-1.48-56.84,17.73,10.24.54-.86L214.6,267.62Zm29.1-30.83,17.71,10.22.95-.62L244.1,237Zm8.39-4.68,17.69,10.21c.38-.18.77-.34,1.15-.51l-17.72-10.23C252.29,232.59,251.91,232.78,251.54,233Zm12-3.76c-.5.07-1,.19-1.53.28l17.69,10.22c.52-.1,1-.2,1.55-.28ZM235.93,243l17.72,10.23.82-.7L236.76,242.3Zm-6.39,5.84,17.72,10.23.75-.75-17.72-10.23Zm-10.85,12.78,17.72,10.23c.2-.27.39-.55.6-.83l-17.73-10.23Zm5.14-6.56,17.72,10.23.68-.78L224.5,254.28Z" style="fill:#263238"></path><path d="M265.52,362.15c-.15,32.9,22.89,46.34,51.46,30s51.85-56.23,52-89.13-22.89-46.34-51.46-30S265.67,329.25,265.52,362.15Z" style="fill:#263238"></path><path d="M318.92,249.11l0,0-1.56-.91c-9.22-4.89-21.77-4-35.62,3.93-28.58,16.34-51.86,56.25-52,89.17a54.46,54.46,0,0,0,2.19,16.2,31.41,31.41,0,0,0,9.2,14.76,25.15,25.15,0,0,0,3.18,2.3l.07,0a.76.76,0,0,0,.18.09l.23.14.85.49,34.6,20.16a27.5,27.5,0,0,1-4-3.07c-6.71-6.2-10.66-16.54-10.6-30.24.15-32.9,23.43-72.83,52-89.15,11.88-6.78,22.81-8.42,31.51-5.63a22.83,22.83,0,0,1,4.2,1.75Z" style="fill:#455a64"></path><path d="M399.88,324.06c-.14,31.13-22.16,68.88-49.2,84.31-7.84,4.49-15.26,6.62-21.81,6.59a25.2,25.2,0,0,1-12.63-3.27l-.07,0h0l-28.81-16.52-.72-.4a25.88,25.88,0,0,1-3.77-2.9c-6.35-5.86-10.09-15.65-10-28.6C273,332.11,295,294.35,322,278.91c11.24-6.42,21.58-8,29.8-5.33a21.06,21.06,0,0,1,4,1.66l.22.11,1.38.81,28.28,16.2v0C394.51,297.49,399.94,308.46,399.88,324.06Z" style="fill:#37474f"></path><path d="M378.59,282.87c-9.3-5.46-22.18-4.78-36.48,3.39-28.59,16.33-51.88,56.27-52,89.19-.07,16.13,5.44,27.54,14.43,33.09,3,1.87,23.3,12.92,26.16,14.61,9.31,5.48,22.21,4.81,36.53-3.37,28.58-16.33,51.88-56.27,52-89.19.07-16.26-5.53-27.72-14.65-33.22C401.6,295.57,381.47,284.55,378.59,282.87Z" style="fill:#455a64"></path><path d="M315.7,389.74c-.15,32.93,22.91,46.38,51.49,30s51.89-56.27,52-89.19-22.91-46.38-51.5-30S315.85,356.81,315.7,389.74Z" style="fill:#263238"></path><path d="M343.66,418.71c-15.48-.07-17.08-18.35-17-26.2.14-30.66,22.74-69.4,49.35-84.61,6.57-3.75,12.83-5.73,18.09-5.7,15.49.07,17.08,18.34,17.05,26.2-.14,30.65-22.74,69.4-49.36,84.6-6.57,3.76-12.83,5.73-18.09,5.71Z"></path><path d="M343.66,418.71c-15.48-.07-17.08-18.35-17-26.2.14-30.66,22.74-69.4,49.35-84.61,6.57-3.75,12.83-5.73,18.09-5.7,15.49.07,17.08,18.34,17.05,26.2-.14,30.65-22.74,69.4-49.36,84.6-6.57,3.76-12.83,5.73-18.09,5.71Z"></path><path d="M398.89,321.35c0-4.69-.54-13.1-4.3-19.13l-.53,0c-5.26,0-11.52,1.95-18.09,5.7-26.61,15.21-49.21,54-49.35,84.61,0,4.69.54,13.1,4.3,19.13l.52,0c5.27,0,11.52-2,18.1-5.71C376.15,390.74,398.75,352,398.89,321.35Z" style="fill:#BA68C8"></path><path d="M398.89,321.35c0-4.69-.54-13.1-4.3-19.13l-.53,0c-5.26,0-11.52,1.95-18.09,5.7-26.61,15.21-49.21,54-49.35,84.61,0,4.69.54,13.1,4.3,19.13l.52,0c5.27,0,11.52-2,18.1-5.71C376.15,390.74,398.75,352,398.89,321.35Z" style="opacity:0.2"></path><path d="M374.91,308.54c-26.15,15.62-48.16,53.73-48.29,84v.07c6.29,5.07,15.76,5.17,26.38-.9,19.08-10.9,34.62-37.54,34.71-59.5C387.77,319.62,382.76,311.32,374.91,308.54Z" style="opacity:0.1"></path><path d="M355.18,325.31a121.36,121.36,0,0,0-24.13,42c1.12,12.19,10.53,16.82,22,10.26,12.28-7,22.29-24.18,22.36-38.33C375.49,325.78,366.58,319.9,355.18,325.31Z" style="opacity:0.2"></path><path d="M365.71,324.44c10.85-13.68,24.49-16,27.18-11.62s2.7,50.27-37.66,82.7c0,0,23.22-24.1,30.13-51.74C391.91,317.59,377.91,313.57,365.71,324.44Z" style="fill:#BA68C8"></path><path d="M365.71,324.44c10.85-13.68,24.49-16,27.18-11.62s2.7,50.27-37.66,82.7c0,0,23.22-24.1,30.13-51.74C391.91,317.59,377.91,313.57,365.71,324.44Z" style="fill:#fff;opacity:0.30000000000000004"></path><path d="M315.7,389.74a74.06,74.06,0,0,1,.57-8.84L290.7,366.13c.21-1.57.43-3,.67-4.38l-17.56-10.14-7.56.4-35.84-20.69c.2-1.52.44-3,.7-4.36l-57.5-33.2a65.92,65.92,0,0,0-.48,7.48c0,9.55,2.14,17.23,6,22.68.06.1.13.19.2.29l.35.47a5.07,5.07,0,0,0,.36.45l.13.16,6.93,9.27-.14-.2c-.22-.32-.45-.64-.66-1a1.74,1.74,0,0,1-.11-.18,24.77,24.77,0,0,0,8.18,8.12l.2.12.09.06,17.14,9.9,17.3,10c-.15-.09-.3-.18-.44-.28l.56.34.2.11.09.06,5.54,3.2a28.25,28.25,0,0,0,6,7.42,25.59,25.59,0,0,0,3.17,2.31l.07,0a.93.93,0,0,0,.2.1l.22.13.85.5,34.6,20.16c-.4-.25-.77-.5-1.15-.76a26.34,26.34,0,0,0,15.22,4.39l1.92,1.1a26.39,26.39,0,0,0,8.32,8.34c2.73,1.68,19.47,10.82,24.84,13.86C320.81,416.66,315.63,405.41,315.7,389.74Z" style="opacity:0.15"></path></g><path d="M225.45,148.54a10.17,10.17,0,0,0-8.88,0H214.5v2.72a3.22,3.22,0,0,0,1.89,2.68,10.17,10.17,0,0,0,9.21,0,3.22,3.22,0,0,0,1.92-2.65v-2.73Z" style="fill:#263238"></path><path d="M216.42,145.84c-2.55,1.45-2.56,3.83,0,5.32a10.23,10.23,0,0,0,9.21,0c2.55-1.46,2.56-3.84,0-5.32A10.17,10.17,0,0,0,216.42,145.84Z" style="fill:#37474f"></path><path d="M242.42,142.76V140h-2.07a10.26,10.26,0,0,0-8.89,0H229.4v2.73a3.27,3.27,0,0,0,1.9,2.68,10.23,10.23,0,0,0,9.21,0A3.25,3.25,0,0,0,242.42,142.76Z" style="fill:#263238"></path><path d="M231.32,137.32c-2.55,1.46-2.56,3.84,0,5.32a10.17,10.17,0,0,0,9.21,0c2.55-1.46,2.56-3.84,0-5.32A10.17,10.17,0,0,0,231.32,137.32Z" style="fill:#37474f"></path><path d="M240.28,157.19a10.21,10.21,0,0,0-8.88,0h-2.07v2.72a3.2,3.2,0,0,0,1.89,2.68,10.17,10.17,0,0,0,9.21,0,3.22,3.22,0,0,0,1.92-2.65V157.2Z" style="fill:#263238"></path><path d="M231.25,154.49c-2.55,1.45-2.56,3.84,0,5.32a10.2,10.2,0,0,0,9.21,0c2.55-1.46,2.56-3.84,0-5.32A10.17,10.17,0,0,0,231.25,154.49Z" style="fill:#37474f"></path><path d="M257.25,151.41v-2.73h-2.07a10.24,10.24,0,0,0-8.88,0h-2.08v2.73a3.24,3.24,0,0,0,1.9,2.67,10.2,10.2,0,0,0,9.21,0A3.25,3.25,0,0,0,257.25,151.41Z" style="fill:#263238"></path><path d="M246.15,146c-2.55,1.46-2.56,3.84,0,5.32a10.17,10.17,0,0,0,9.21,0c2.55-1.46,2.56-3.84,0-5.32A10.17,10.17,0,0,0,246.15,146Z" style="fill:#37474f"></path><path d="M133,226,133,216l-7.53,0c-9.08-5-23.19-5-32.31-.14l-7.53,0,0,10.11c0,3.5,2.26,7,6.89,9.72,9.22,5.38,24.22,5.45,33.5.15C130.66,233.06,133,229.55,133,226Z" style="fill:#263238"></path><path d="M110.89,239.61c.39,0,.77,0,1.15-.06V212.27l-1.15-.06Z"></path><path d="M120.65,213.89l-1.15-.35v24.79c.39-.1.77-.21,1.15-.33Z"></path><path d="M125,215.65c-.38-.19-.75-.39-1.14-.56v21.72c.39-.17.76-.36,1.14-.55Z"></path><path d="M116.34,212.82l-1.14-.2v26.6q.57-.08,1.14-.18Z"></path><path d="M132.41,229A8.11,8.11,0,0,0,133,226L133,216h-.61Z"></path><path d="M128.11,234.31c.4-.3.79-.61,1.15-.93V215.94h-1.15Z"></path><path d="M103.43,212.58l-1.14.19V239q.57.11,1.14.18Z"></path><path d="M86.22,215.75h-.57l0,10.11a8.17,8.17,0,0,0,.61,3.08Z"></path><path d="M89.38,233.31c.35.32.74.63,1.14.93V215.77H89.38Z"></path><path d="M99.13,213.47c-.39.1-.77.22-1.15.34V238c.38.12.76.23,1.15.33Z"></path><path d="M107.74,212.2c-.39,0-.77,0-1.15.06v27.28c.38,0,.76.05,1.15.06Z"></path><path d="M93.68,236.19c.37.19.75.38,1.15.55V215c-.4.18-.77.37-1.15.56Z"></path><path d="M92.63,206.1c-9.28,5.3-9.32,14-.09,19.35s24.23,5.45,33.5.15,9.32-14,.09-19.34S101.9,200.8,92.63,206.1Z" style="fill:#37474f"></path><path d="M107.57,206.64a1.06,1.06,0,0,0,0,2,3.82,3.82,0,0,0,3.47,0,1.06,1.06,0,0,0,0-2A3.82,3.82,0,0,0,107.57,206.64Z" style="fill:#e0e0e0"></path><path d="M97.13,208.66a1.06,1.06,0,0,0,0,2,3.82,3.82,0,0,0,3.47,0,1.05,1.05,0,0,0,0-2A3.82,3.82,0,0,0,97.13,208.66Z" style="fill:#e0e0e0"></path><path d="M90.67,214.74a1.06,1.06,0,0,0,0,2,3.86,3.86,0,0,0,3.47,0,1.06,1.06,0,0,0,0-2A3.82,3.82,0,0,0,90.67,214.74Z" style="fill:#e0e0e0"></path><path d="M121.29,208.66a1.06,1.06,0,0,1,0,2,3.82,3.82,0,0,1-3.47,0,1.06,1.06,0,0,1,0-2A3.82,3.82,0,0,1,121.29,208.66Z" style="fill:#BA68C8"></path><path d="M107.57,225.26a1.06,1.06,0,0,1,0-2,3.82,3.82,0,0,1,3.47,0,1.06,1.06,0,0,1,0,2A3.82,3.82,0,0,1,107.57,225.26Z" style="fill:#e0e0e0"></path><path d="M97.13,223.24a1.06,1.06,0,0,1,0-2,3.82,3.82,0,0,1,3.47,0,1.05,1.05,0,0,1,0,2A3.82,3.82,0,0,1,97.13,223.24Z" style="fill:#e0e0e0"></path><path d="M121.29,223.24a1.06,1.06,0,0,0,0-2,3.82,3.82,0,0,0-3.47,0,1.06,1.06,0,0,0,0,2A3.82,3.82,0,0,0,121.29,223.24Z" style="fill:#e0e0e0"></path><path d="M127.75,214.74a1.05,1.05,0,0,1,0,2,3.85,3.85,0,0,1-3.47,0,1.06,1.06,0,0,1,0-2A3.82,3.82,0,0,1,127.75,214.74Z" style="fill:#e0e0e0"></path><path d="M109.46,227.38h0a31.92,31.92,0,0,1-15.84-3.79c-3.77-2.2-5.84-5-5.83-7.84s2.11-5.61,5.9-7.78a31.88,31.88,0,0,1,15.52-3.65,32,32,0,0,1,15.84,3.79c3.77,2.2,5.84,5,5.83,7.84s-2.11,5.62-5.9,7.78A31.77,31.77,0,0,1,109.46,227.38Zm-.25-22.77a31.56,31.56,0,0,0-15.38,3.61c-3.7,2.11-5.74,4.79-5.75,7.54s2,5.44,5.69,7.58a31.64,31.64,0,0,0,15.69,3.76h0a31.67,31.67,0,0,0,15.38-3.61c3.69-2.12,5.74-4.79,5.75-7.54s-2-5.44-5.69-7.59A31.61,31.61,0,0,0,109.21,204.61Z" style="fill:#e0e0e0"></path><path d="M167.73,253.73c-1.2-.69-2.91-.57-4.81.52l-11.55,6.67c-3.65,2.11-6.6,7-6.6,11a4.16,4.16,0,0,0,1.78,3.84c.71.42,3.43,2,4.14,2.39,1.2.7,2.9.58,4.8-.52l11.56-6.67c3.64-2.1,6.59-7,6.59-10.95a4.17,4.17,0,0,0-1.78-3.85Z" style="fill:#263238"></path><path d="M155.49,263.31l11.56-6.68c3.64-2.1,6.59-.61,6.59,3.34s-2.95,8.85-6.59,10.95l-11.56,6.67c-3.64,2.11-6.6.61-6.6-3.33S151.85,265.41,155.49,263.31Z" style="fill:#455a64"></path><path d="M266.06,128.21c0-.38-.41-.69-1.21-.85L248,124.13c-1-.2-1.64.15-1.64.83v3a2,2,0,0,0,.33,1l4.66,8.08a2.73,2.73,0,0,0,3.73,1l10.05-5.8c.6-.35.89-.71.89-1Z" style="fill:#263238"></path><path d="M281.27,143.58a2.06,2.06,0,0,0-.32-1l-4.66-8.07a2.73,2.73,0,0,0-3.73-1l-10.06,5.8c-.59.35-.89.71-.89,1v3c0,.38.41.7,1.21.85l16.81,3.24c1.05.2,1.65-.16,1.65-.84C281.27,146.28,281.27,144.1,281.27,143.58Z" style="fill:#263238"></path><path d="M255.11,135.05l10.06-5.81c1.3-.75,1.16-1.59-.32-1.88L248,124.13c-1.48-.29-2.07.54-1.31,1.84l4.66,8.08A2.73,2.73,0,0,0,255.11,135.05Z" style="fill:#37474f"></path><path d="M262.5,139.31l10.06-5.8a2.73,2.73,0,0,1,3.73,1l4.66,8.07c.75,1.31.16,2.13-1.32,1.85l-16.81-3.24C261.34,140.91,261.2,140.07,262.5,139.31Z" style="fill:#37474f"></path><path d="M320.11,159.33c-5.4-3.76-14.6-4.55-20.55-1.76-3,1.41-4.61,3.47-4.76,5.64,0,.36-.15,1.83-.19,2.2-.2,2.16,1,4.44,3.73,6.33,5.4,3.76,14.6,4.55,20.55,1.76,3-1.43,4.63-3.5,4.76-5.7,0-.34.15-1.79.19-2.17C324,163.48,322.81,161.21,320.11,159.33Z" style="fill:#e0e0e0"></path><ellipse cx="309.32" cy="164.38" rx="8.42" ry="14.58" transform="translate(119.17 458.57) rotate(-85.11)" style="fill:#fafafa"></ellipse><path d="M264,195.91c3.42-2,6.19-.38,6.19,3.57A13.66,13.66,0,0,1,264,210.19c-3.42,2-6.19.38-6.19-3.57A13.66,13.66,0,0,1,264,195.91Z" style="fill:#e0e0e0"></path><path d="M267.26,195.11a5.13,5.13,0,0,0-3.28.8,13.66,13.66,0,0,0-6.19,10.71,5.1,5.1,0,0,0,1,3.32,5.13,5.13,0,0,0,3.28-.8,13.67,13.67,0,0,0,6.19-10.72A5,5,0,0,0,267.26,195.11Z" style="fill:#fafafa"></path><path d="M339.77,199.58l0,4.59c0,3.12-2.06,6.23-6.19,8.58-7.8,4.46-20.19,4.62-28.42.55v-4.66a41.76,41.76,0,0,0,20.73-5.23,25.5,25.5,0,0,0,5.89-4.54c.47.21.92.44,1.35.68Z" style="fill:#263238"></path><path d="M316.34,216.13c.34,0,.67.05,1,.06h0v-4.63a8.47,8.47,0,0,1-1-.06Z"></path><path d="M305.12,208.65v4.63l.79.38V209l-.42-.2Z"></path><path d="M321.17,211.53h0c-.28,0-.58,0-.87,0h-.11v4.61h.4l.61,0Z"></path><path d="M308.71,210.09v4.64l1,.3V210.4l-.12,0C309.3,210.28,309,210.19,308.71,210.09Z"></path><path d="M335.42,206.92v4.58h0a11.5,11.5,0,0,0,1-.8l0,0v-4.59l-.43.37C335.83,206.62,335.62,206.77,335.42,206.92Z"></path><path d="M339.23,202.28v4.48a5.05,5.05,0,0,0,.18-.55,6.49,6.49,0,0,0,.19-.76,2.89,2.89,0,0,0,0-.29,6.62,6.62,0,0,0,.09-1l0-4.2A7.31,7.31,0,0,1,339.23,202.28Z"></path><path d="M313.28,211.17l-.75-.13v4.62l.52.09.5.08v-4.62Z"></path><path d="M332.62,208.64l-1,.48v4.6l1-.49Z"></path><path d="M327.82,215.06l1-.29v-4.61c-.33.11-.65.21-1,.3h0v4.6Z"></path><path d="M325,215.7v-4.61l-1,.16v4.6l.7-.1Z"></path><path d="M333.58,208.12c-7.82,4.48-20.23,4.63-28.46.52a41.78,41.78,0,0,0,20.73-5.23c5.5-3.18,8.84-7.25,9.7-11.16C341.78,197,341.12,203.83,333.58,208.12Z" style="fill:#455a64"></path><polygon points="190.27 157.49 161.4 140.82 129.92 158.99 158.8 175.66 190.27 157.49" style="fill:#e0e0e0"></polygon><polygon points="190.27 157.49 161.4 140.82 129.92 158.99 158.8 175.66 190.27 157.49" style="opacity:0.2"></polygon><path d="M189.45,151.16l-28.88-16.67a2.2,2.2,0,0,1,.83,2v4.32l28.87,16.67v-4.32A2.22,2.22,0,0,0,189.45,151.16Z" style="fill:#e0e0e0"></path><path d="M189.45,151.16l-28.88-16.67a2.2,2.2,0,0,1,.83,2v4.32l28.87,16.67v-4.32A2.22,2.22,0,0,0,189.45,151.16Z" style="opacity:0.1"></path><path d="M157.27,178.3v-6.08a9.8,9.8,0,0,1,4.51-7.8l4.13-2.39v1.76l-3.37,1.94a8.44,8.44,0,0,0-3.74,6.49v3.44l31.47-18.17v-4.32a1.78,1.78,0,0,0-3-1.73l-4.87,2.82,0-1.75,4.13-2.38a3.26,3.26,0,0,1,5.27,3v5.2Z" style="fill:#fafafa"></path><path d="M137,145.36l-4.12,2.39a9.8,9.8,0,0,0-4.51,7.8v6.08l28.87,16.67v-6.08a9.8,9.8,0,0,1,4.51-7.8l4.13-2.39Z" style="fill:#ebebeb"></path><path d="M157.27,172.22a9.7,9.7,0,0,1,2.18-5.71l-28.88-16.67a9.75,9.75,0,0,0-2.17,5.71v6.08l28.87,16.67Z" style="fill:#e0e0e0"></path><polygon points="153.53 135.84 182.41 152.51 182.42 154.26 153.54 137.59 153.53 135.84" style="fill:#f5f5f5"></polygon><path d="M161.33,133.17a3.6,3.6,0,0,0-3.67.29l-4.13,2.38,28.87,16.67,4.13-2.38a3.62,3.62,0,0,1,3.68-.29Z" style="fill:#ebebeb"></path></g></g></svg>