<svg xmlns="http://www.w3.org/2000/svg" viewBox="0 0 750 500"><g id="freepik--background-complete--inject-150"><rect x="24.1" y="79.59" width="152.3" height="101.97" style="fill:#fff"></rect><path d="M176.39,181.57s0-.64,0-1.86,0-3,0-5.38c0-4.72,0-11.64-.05-20.51,0-17.71-.07-43.18-.12-74.23l.22.22-152.28.06h0l.27-.28c0,36.33,0,70.88,0,102l-.25-.25,109.72.12,31.34.07,8.34,0h2.15l.74,0h-.71l-2.12,0-8.29,0-31.29.06-109.88.13h-.25v-.25c0-31.1,0-65.65,0-102v-.27h.29l152.28.06h.22v.21c-.05,31.11-.09,56.62-.11,74.37,0,8.84-.05,15.75-.06,20.46,0,2.33,0,4.12,0,5.34S176.39,181.57,176.39,181.57Z" style="fill:#e0e0e0"></path><path d="M24.1,88.69c0-.15,34.06-.27,76.08-.27s76.09.12,76.09.27-34.06.28-76.09.28S24.1,88.85,24.1,88.69Z" style="fill:#e0e0e0"></path><g style="opacity:0.30000000000000004"><path d="M30.1,84.1a1.22,1.22,0,0,1-2.44,0,1.22,1.22,0,0,1,2.44,0Z" style="fill:#e0e0e0"></path></g><g style="opacity:0.30000000000000004"><path d="M34.29,84.1a1.22,1.22,0,1,1-1.22-1.22A1.22,1.22,0,0,1,34.29,84.1Z" style="fill:#e0e0e0"></path></g><g style="opacity:0.30000000000000004"><path d="M38.41,84.1a1.22,1.22,0,1,1-1.22-1.22A1.22,1.22,0,0,1,38.41,84.1Z" style="fill:#e0e0e0"></path></g><rect x="37.19" y="99.33" width="40.62" height="40.63" style="fill:#e0e0e0"></rect><path d="M155.51,110.81c0,.15-15.85.27-35.39.27s-35.39-.12-35.39-.27,15.85-.27,35.39-.27S155.51,110.66,155.51,110.81Z" style="fill:#e0e0e0"></path><path d="M155.51,118.36c0,.15-15.85.27-35.39.27s-35.39-.12-35.39-.27,15.85-.27,35.39-.27S155.51,118.21,155.51,118.36Z" style="fill:#e0e0e0"></path><path d="M155.51,125.91c0,.15-15.85.27-35.39.27s-35.39-.12-35.39-.27,15.85-.27,35.39-.27S155.51,125.76,155.51,125.91Z" style="fill:#e0e0e0"></path><path d="M126.56,133.46a9.76,9.76,0,0,1-1.64.11l-4.48.08c-3.79,0-9,.08-14.79.08s-11,0-14.79-.08l-4.48-.08a10,10,0,0,1-1.65-.11,10,10,0,0,1,1.65-.11l4.48-.08c3.78-.05,9-.08,14.79-.08s11,0,14.79.08l4.48.08A9.76,9.76,0,0,1,126.56,133.46Z" style="fill:#e0e0e0"></path><rect x="39.73" y="153.65" width="19.09" height="19.09" style="fill:#e0e0e0"></rect><rect x="74.35" y="153.65" width="19.09" height="19.09" style="fill:#e0e0e0"></rect><rect x="108.98" y="153.65" width="19.09" height="19.09" style="fill:#e0e0e0"></rect><rect x="143.6" y="153.65" width="19.09" height="19.09" style="fill:#e0e0e0"></rect><rect x="198.87" y="30.04" width="131.19" height="53.29" style="fill:#fff"></rect><path d="M330.06,83.33s0-.33,0-1,0-1.56,0-2.77c0-2.43,0-6,0-10.6,0-9.2-.05-22.5-.08-39l.15.15-131.19.06h0l.2-.21c0,18.66,0,36.68,0,53.29l-.19-.2,94.06.09,27.28.06,7.31,0h0l-7.26,0-27.24.05-94.19.1h-.2v-.2c0-16.61,0-34.63,0-53.29v-.21h.21l131.19.07h.14V30c0,16.51-.06,29.84-.08,39.06,0,4.58,0,8.15,0,10.57,0,1.2,0,2.11,0,2.74S330.06,83.33,330.06,83.33Z" style="fill:#e0e0e0"></path><path d="M199,37.23c0-.12,29.32-.21,65.48-.21s65.5.09,65.5.21-29.32.21-65.5.21S199,37.34,199,37.23Z" style="fill:#e0e0e0"></path><g style="opacity:0.30000000000000004"><path d="M204.49,34a.95.95,0,1,1-1-.95A1,1,0,0,1,204.49,34Z" style="fill:#ebebeb"></path></g><g style="opacity:0.30000000000000004"><path d="M207.75,34a.95.95,0,1,1-.95-.95A1,1,0,0,1,207.75,34Z" style="fill:#ebebeb"></path></g><g style="opacity:0.30000000000000004"><circle cx="210.02" cy="34.01" r="0.95" style="fill:#ebebeb"></circle></g><rect x="210.02" y="45.89" width="31.69" height="31.69" style="fill:#e0e0e0"></rect><path d="M321,54.38c0,.12-16.31.21-36.42.21s-36.42-.09-36.42-.21,16.31-.21,36.42-.21S321,54.27,321,54.38Z" style="fill:#e0e0e0"></path><path d="M321,60.84c0,.11-16.31.2-36.42.2s-36.42-.09-36.42-.2,16.31-.21,36.42-.21S321,60.72,321,60.84Z" style="fill:#e0e0e0"></path><path d="M295,67.29a1.61,1.61,0,0,1-.48,0l-1.36,0-5,.07-16.57.06L255,67.44l-5-.07-1.37,0a1.68,1.68,0,0,1-.48,0,2.32,2.32,0,0,1,.48,0l1.37,0,5-.06,16.58-.07,16.57.07,5,.06,1.36,0A2.2,2.2,0,0,1,295,67.29Z" style="fill:#e0e0e0"></path><path d="M684,101.16a4.68,4.68,0,0,1,.74-.85c.59-.58,1.31-1.31,2.16-2.16,1.83-1.82,4.39-4.3,7.24-7l.07-.06v.36c-2.87-2.66-5.45-5.09-7.29-6.87l-2.17-2.12a5,5,0,0,1-.75-.83,4.57,4.57,0,0,1,.88.68l2.28,2c1.9,1.71,4.52,4.1,7.39,6.76l.2.19-.2.18-.06.06c-2.85,2.72-5.45,5.16-7.35,6.9l-2.26,2.06A6.07,6.07,0,0,1,684,101.16Z" style="fill:#e0e0e0"></path><path d="M661.87,81.62a5.39,5.39,0,0,1-.74.84L659,84.63c-1.83,1.81-4.39,4.29-7.24,7l-.07.06v-.37c2.87,2.67,5.45,5.1,7.29,6.88l2.17,2.12a4.53,4.53,0,0,1,.75.83,5,5,0,0,1-.88-.69l-2.28-2c-1.9-1.71-4.52-4.1-7.39-6.77l-.2-.18.2-.18.06-.07c2.85-2.71,5.45-5.15,7.35-6.9L661,82.32A4.66,4.66,0,0,1,661.87,81.62Z" style="fill:#e0e0e0"></path><path d="M667.56,105.76c-.13-.05,2.19-6.58,5.19-14.59s5.53-14.47,5.66-14.42-2.2,6.58-5.19,14.59S667.69,105.81,667.56,105.76Z" style="fill:#e0e0e0"></path><path d="M709.19,119.74s0-.38,0-1.09,0-1.78,0-3.14c0-2.76,0-6.79,0-11.91,0-10.25-.06-24.9-.11-42.56l.21.21-72,0h0l.25-.25c0,21.22,0,41.26,0,58.7l-.22-.22,52,.11,14.74.06,3.92,0h1.36l-.33,0h-1l-3.87,0-14.7.06-52.17.11h-.22v-.23c0-17.44,0-37.48,0-58.7v-.25h.26l72,0h.21V61c0,17.71-.08,32.41-.11,42.69,0,5.11,0,9.11,0,11.86,0,1.35,0,2.39,0,3.11S709.19,119.74,709.19,119.74Z" style="fill:#e0e0e0"></path><path d="M709.76,69.75c0,.14-16.27.25-36.33.25s-36.32-.11-36.32-.25,16.26-.25,36.32-.25S709.76,69.61,709.76,69.75Z" style="fill:#e0e0e0"></path><path d="M643,65.46a1,1,0,1,1-1-1A1,1,0,0,1,643,65.46Z" style="fill:#e0e0e0"></path><path d="M646.56,65.46a1,1,0,1,1-1-1A1,1,0,0,1,646.56,65.46Z" style="fill:#e0e0e0"></path><path d="M650.09,65.46a1,1,0,1,1-1-1A1,1,0,0,1,650.09,65.46Z" style="fill:#e0e0e0"></path><path d="M692.59,377.9c4.16-2.15,9.07-2.43,13.69-1.66,2.48.41,5.07,1.15,6.76,3s2,5.14.07,6.75a6.55,6.55,0,0,1-4.26,1.08c-3.62,0-7.64-.68-10.53,1.5-1.65,1.24-2.74,3.3-4.72,3.91a4.66,4.66,0,0,1-5.13-2.28,8,8,0,0,1-.58-5.88A9,9,0,0,1,692.59,377.9Z" style="fill:#ebebeb"></path><path d="M683.05,359.49c2.55,3.63,7.5,2.43,9.79.21s3.26-5.44,4.15-8.5c2-7,4-14.36,2.55-21.5a12,12,0,0,0-2.75-5.85,6.23,6.23,0,0,0-5.91-2c-2.5.66-4,3.1-5.17,5.42a51.26,51.26,0,0,0-5.06,22c0,3.54.4,7.25,2.4,10.18" style="fill:#ebebeb"></path><path d="M676.06,364.7c2.76-3.28,3.29-8.06,2.06-12.17a23.46,23.46,0,0,0-7.21-10.46A38.88,38.88,0,0,0,658,334.45a13.86,13.86,0,0,0-5.81-1,6.12,6.12,0,0,0-4.88,3c-1.35,2.59,0,5.74,1.36,8.3a98.45,98.45,0,0,0,8.48,12.92c2.54,3.27,5.45,6.51,9.33,8s7.9,1.31,9.95-1.38" style="fill:#ebebeb"></path><path d="M682.88,414.34a8.29,8.29,0,0,0,.23-1.66c.12-1.2.26-2.71.44-4.51s.49-4.15,1-6.61a51.47,51.47,0,0,1,2.41-7.81,28.8,28.8,0,0,1,4-7.06,15,15,0,0,1,5-4.19,14.18,14.18,0,0,1,4.25-1.32,7.69,7.69,0,0,0,1.64-.24,8.6,8.6,0,0,0-1.67,0,12.77,12.77,0,0,0-4.43,1.15,14.89,14.89,0,0,0-5.31,4.22,28.24,28.24,0,0,0-4.14,7.21,47.94,47.94,0,0,0-2.38,7.93,56.11,56.11,0,0,0-.88,6.7c-.14,1.92-.2,3.47-.23,4.54A7.58,7.58,0,0,0,682.88,414.34Z" style="fill:#e0e0e0"></path><path d="M683.19,410.87a3.39,3.39,0,0,0,0-.77v-2.19c0-1.91,0-4.66.1-8.06.16-6.8.75-14.12,1.88-24.43,1.07-9.7,2.51-21,4-28.34.32-1.67.65-3.17,1-4.48s.54-2.46.78-3.38.38-1.57.52-2.13a3.24,3.24,0,0,0,.13-.76,4.49,4.49,0,0,0-.27.72q-.24.82-.63,2.1c-.28.92-.57,2-.9,3.36s-.71,2.81-1.07,4.47a249.06,249.06,0,0,0-4.23,26.29c-1.13,10.34-1.64,19.76-1.69,26.57,0,3.41,0,6.17.12,8.07.06.89.1,1.62.14,2.19A3.87,3.87,0,0,0,683.19,410.87Z" style="fill:#e0e0e0"></path><path d="M683.24,392.71a17.42,17.42,0,0,0,0-2.29c-.08-1.47-.29-3.6-.7-6.2a82.83,82.83,0,0,0-2-9,74,74,0,0,0-3.78-10.7,57.22,57.22,0,0,0-11.1-17.29,27.72,27.72,0,0,0-2.61-2.42c-.4-.34-.76-.68-1.12-.95l-1-.7a14.27,14.27,0,0,0-1.93-1.23,68.67,68.67,0,0,1,6.32,5.64,59.9,59.9,0,0,1,10.82,17.22,84.12,84.12,0,0,1,3.81,10.6A89.48,89.48,0,0,1,682,384.3c.48,2.58.75,4.68.92,6.14A13.57,13.57,0,0,0,683.24,392.71Z" style="fill:#e0e0e0"></path><polygon points="665.69 424.74 667.51 449.66 699.53 449.66 701.35 424.74 665.69 424.74" style="fill:#e0e0e0"></polygon><rect x="662.59" y="414.91" width="42.57" height="9.82" style="fill:#e0e0e0"></rect><polygon points="662.59 448.71 662.59 451.43 664.59 451.43 704.46 451.43 704.46 448.71 662.59 448.71" style="fill:#ebebeb"></polygon><polygon points="666.55 456.23 664.59 451.43 702.94 451.43 700.65 456.23 666.55 456.23" style="fill:#e0e0e0"></polygon><path d="M700.75,432.88s0,.09-.15.23l-.48.64-1.86,2.38-.08.11-.09-.11c-1.17-1.62-2.73-3.79-4.58-6.34h.27l-4.52,6.39-.14.2-.16-.19-5.35-6.36h.31l-.29.37-4.79,6-.16.2-.14-.21c-1.63-2.3-3.15-4.44-4.52-6.39l.26,0-5.55,6.33-.1.11-.08-.12-1.74-2.93-.45-.78a1.39,1.39,0,0,1-.13-.27s.07.07.18.24l.5.75,1.83,2.87h-.18l5.47-6.41.14-.16.12.17,4.56,6.36h-.31l4.78-6,.29-.37.15-.19.16.19,5.33,6.38H689l4.56-6.36.14-.18.13.18,4.48,6.41h-.16l1.94-2.33.52-.6A1.17,1.17,0,0,1,700.75,432.88Z" style="fill:#f5f5f5"></path><path d="M701.79,424.57c0,.11-8,.2-17.92.2s-17.92-.09-17.92-.2,8-.2,17.92-.2S701.79,424.46,701.79,424.57Z" style="fill:#f5f5f5"></path><path d="M703.41,451.7c0,.11-8.72.2-19.47.2s-19.48-.09-19.48-.2,8.72-.2,19.48-.2S703.41,451.59,703.41,451.7Z" style="fill:#f5f5f5"></path></g><g id="freepik--Device--inject-150"><path d="M109.14,104.09H620a6.74,6.74,0,0,1,6.74,6.74V437a14.57,14.57,0,0,1-14.57,14.57H116A14.57,14.57,0,0,1,101.39,437V111.85A7.75,7.75,0,0,1,109.14,104.09Z" style="fill:#455a64"></path><path d="M79.42,425.83H648.63a0,0,0,0,1,0,0V442.5a13.72,13.72,0,0,1-13.72,13.72H93.14A13.72,13.72,0,0,1,79.42,442.5V425.83a0,0,0,0,1,0,0Z" style="fill:#455a64"></path><rect x="115.49" y="117.9" width="495.7" height="293.4" style="fill:#e0e0e0"></rect><polygon points="312.29 425.83 319.35 437.06 418.74 437.06 425.3 425.83 312.29 425.83" style="fill:#263238"></polygon><rect x="130.2" y="134.9" width="467.48" height="276.4" style="fill:#263238"></rect><path d="M166.07,403.18c-.24,0-.44-58.86-.44-131.46s.2-131.49.44-131.49.44,58.86.44,131.49S166.31,403.18,166.07,403.18Z" style="fill:#e0e0e0"></path><path d="M156.64,164.07c0,.24-3.4.44-7.59.44s-7.6-.2-7.6-.44,3.4-.44,7.6-.44S156.64,163.83,156.64,164.07Z" style="fill:#e0e0e0"></path><path d="M157.22,149.15c0,.24-3.4.44-7.59.44s-7.59-.2-7.59-.44,3.4-.44,7.59-.44S157.22,148.91,157.22,149.15Z" style="fill:#e0e0e0"></path><path d="M156.64,180.15c0,.24-3.4.44-7.59.44s-7.6-.2-7.6-.44,3.4-.44,7.6-.44S156.64,179.91,156.64,180.15Z" style="fill:#e0e0e0"></path><path d="M156.64,196.23c0,.25-3.4.44-7.59.44s-7.6-.19-7.6-.44,3.4-.43,7.6-.43S156.64,196,156.64,196.23Z" style="fill:#e0e0e0"></path><path d="M156.64,212.32c0,.24-3.4.44-7.59.44s-7.6-.2-7.6-.44,3.4-.44,7.6-.44S156.64,212.07,156.64,212.32Z" style="fill:#e0e0e0"></path><path d="M156.64,228.4c0,.24-3.4.44-7.59.44s-7.6-.2-7.6-.44,3.4-.44,7.6-.44S156.64,228.16,156.64,228.4Z" style="fill:#e0e0e0"></path><path d="M156.64,244.48c0,.24-3.4.44-7.59.44s-7.6-.2-7.6-.44,3.4-.44,7.6-.44S156.64,244.24,156.64,244.48Z" style="fill:#e0e0e0"></path><path d="M156.64,260.56c0,.25-3.4.44-7.59.44s-7.6-.19-7.6-.44,3.4-.43,7.6-.43S156.64,260.32,156.64,260.56Z" style="fill:#e0e0e0"></path><path d="M156.64,276.65c0,.24-3.4.43-7.59.43s-7.6-.19-7.6-.43,3.4-.44,7.6-.44S156.64,276.4,156.64,276.65Z" style="fill:#e0e0e0"></path><path d="M156.64,292.73c0,.24-3.4.44-7.59.44s-7.6-.2-7.6-.44,3.4-.44,7.6-.44S156.64,292.49,156.64,292.73Z" style="fill:#e0e0e0"></path><path d="M156.64,308.81c0,.24-3.4.44-7.59.44s-7.6-.2-7.6-.44,3.4-.44,7.6-.44S156.64,308.57,156.64,308.81Z" style="fill:#e0e0e0"></path><path d="M156.64,324.89c0,.25-3.4.44-7.59.44s-7.6-.19-7.6-.44,3.4-.43,7.6-.43S156.64,324.65,156.64,324.89Z" style="fill:#e0e0e0"></path><path d="M156.64,341c0,.24-3.4.43-7.59.43s-7.6-.19-7.6-.43,3.4-.44,7.6-.44S156.64,340.73,156.64,341Z" style="fill:#e0e0e0"></path><path d="M156.64,357.06c0,.24-3.4.44-7.59.44s-7.6-.2-7.6-.44,3.4-.44,7.6-.44S156.64,356.82,156.64,357.06Z" style="fill:#e0e0e0"></path><path d="M156.64,373.14c0,.24-3.4.44-7.59.44s-7.6-.2-7.6-.44,3.4-.44,7.6-.44S156.64,372.9,156.64,373.14Z" style="fill:#e0e0e0"></path><path d="M156.64,389.22c0,.25-3.4.44-7.59.44s-7.6-.19-7.6-.44,3.4-.44,7.6-.44S156.64,389,156.64,389.22Z" style="fill:#e0e0e0"></path><path d="M217.51,163.12c0,.24-8.82.44-19.7.44s-19.71-.2-19.71-.44,8.82-.44,19.71-.44S217.51,162.88,217.51,163.12Z" style="fill:#FF725E"></path><path d="M217.51,389.22c0,.25-8.82.44-19.7.44s-19.71-.19-19.71-.44,8.82-.44,19.71-.44S217.51,389,217.51,389.22Z" style="fill:#FF725E"></path><path d="M272.4,196.23c0,.25-16.51.44-36.87.44s-36.87-.19-36.87-.44,16.5-.43,36.87-.43S272.4,196,272.4,196.23Z" style="fill:#FF725E"></path><path d="M357.68,196.23c0,.25-16.51.44-36.87.44s-36.88-.19-36.88-.44,16.51-.43,36.88-.43S357.68,196,357.68,196.23Z" style="fill:#e0e0e0"></path><path d="M325.09,212.32c0,.24-24.33.44-54.34.44s-54.34-.2-54.34-.44,24.32-.44,54.34-.44S325.09,212.07,325.09,212.32Z" style="fill:#e0e0e0"></path><path d="M325.09,228.4c0,.24-24.33.44-54.34.44s-54.34-.2-54.34-.44,24.32-.44,54.34-.44S325.09,228.16,325.09,228.4Z" style="fill:#e0e0e0"></path><path d="M399.9,276.65c0,.24-24.34.43-54.34.43s-54.35-.19-54.35-.43,24.33-.44,54.35-.44S399.9,276.4,399.9,276.65Z" style="fill:#e0e0e0"></path><path d="M367.61,244.48c0,.24-24.33.44-54.33.44s-54.35-.2-54.35-.44,24.33-.44,54.35-.44S367.61,244.24,367.61,244.48Z" style="fill:#e0e0e0"></path><path d="M500.42,244.48c0,.24-24.33.44-54.33.44s-54.35-.2-54.35-.44,24.33-.44,54.35-.44S500.42,244.24,500.42,244.48Z" style="fill:#e0e0e0"></path><path d="M454.24,212.32c0,.24-24.34.44-54.34.44s-54.34-.2-54.34-.44,24.32-.44,54.34-.44S454.24,212.07,454.24,212.32Z" style="fill:#fafafa"></path><path d="M529.31,276.65c0,.24-24.33.43-54.34.43s-54.34-.19-54.34-.43,24.32-.44,54.34-.44S529.31,276.4,529.31,276.65Z" style="fill:#fafafa"></path><path d="M514.32,228.4c0,.24-37.78.44-84.38.44s-84.38-.2-84.38-.44,37.77-.44,84.38-.44S514.32,228.16,514.32,228.4Z" style="fill:#455a64"></path><path d="M217.51,180.15c0,.24-8.82.44-19.7.44s-19.71-.2-19.71-.44,8.82-.44,19.71-.44S217.51,179.91,217.51,180.15Z" style="fill:#fafafa"></path><path d="M217.51,373.14c0,.24-8.82.44-19.7.44s-19.71-.2-19.71-.44,8.82-.44,19.71-.44S217.51,372.9,217.51,373.14Z" style="fill:#fafafa"></path><path d="M237,244.48c0,.24-8.82.44-19.71.44s-19.71-.2-19.71-.44,8.83-.44,19.71-.44S237,244.24,237,244.48Z" style="fill:#fafafa"></path><path d="M552.93,244.48c0,.24-8.82.44-19.7.44s-19.71-.2-19.71-.44,8.82-.44,19.71-.44S552.93,244.24,552.93,244.48Z" style="fill:#FF725E"></path><path d="M272.4,308.72c0,.24-16.51.44-36.87.44s-36.87-.2-36.87-.44,16.5-.44,36.87-.44S272.4,308.47,272.4,308.72Z" style="fill:#FF725E"></path><path d="M357.68,308.72c0,.24-16.51.44-36.87.44s-36.88-.2-36.88-.44,16.51-.44,36.88-.44S357.68,308.47,357.68,308.72Z" style="fill:#e0e0e0"></path><path d="M325.09,324.8c0,.24-24.33.44-54.34.44s-54.34-.2-54.34-.44,24.32-.44,54.34-.44S325.09,324.56,325.09,324.8Z" style="fill:#e0e0e0"></path><path d="M325.09,340.88c0,.24-24.33.44-54.34.44s-54.34-.2-54.34-.44,24.32-.44,54.34-.44S325.09,340.64,325.09,340.88Z" style="fill:#e0e0e0"></path><path d="M367.61,357c0,.25-24.33.44-54.33.44s-54.35-.19-54.35-.44,24.33-.43,54.35-.43S367.61,356.72,367.61,357Z" style="fill:#e0e0e0"></path><path d="M500.42,357c0,.25-24.33.44-54.33.44s-54.35-.19-54.35-.44,24.33-.43,54.35-.43S500.42,356.72,500.42,357Z" style="fill:#e0e0e0"></path><path d="M454.24,324.8c0,.24-24.34.44-54.34.44s-54.34-.2-54.34-.44,24.32-.44,54.34-.44S454.24,324.56,454.24,324.8Z" style="fill:#fafafa"></path><path d="M514.32,340.88c0,.24-37.78.44-84.38.44s-84.38-.2-84.38-.44,37.77-.44,84.38-.44S514.32,340.64,514.32,340.88Z" style="fill:#455a64"></path><path d="M237,357c0,.25-8.82.44-19.71.44s-19.71-.19-19.71-.44,8.83-.43,19.71-.43S237,356.72,237,357Z" style="fill:#fafafa"></path><path d="M552.93,357c0,.25-8.82.44-19.7.44s-19.71-.19-19.71-.44,8.82-.43,19.71-.43S552.93,356.72,552.93,357Z" style="fill:#FF725E"></path><path d="M563.44,436c0,.14-100.64.26-224.76.26S113.9,436.12,113.9,436s100.62-.26,224.78-.26S563.44,435.84,563.44,436Z" style="fill:#263238"></path></g><g id="freepik--Plant--inject-150"><path d="M97.07,347.83a57.06,57.06,0,0,0-54.45-14.95,99.15,99.15,0,0,0,55.1,17.21" style="fill:#FF725E"></path><path d="M78.6,282.43c2.27-16.05-4-34.1-16-45.76-.39,15.9,6.32,33.79,16,45.76" style="fill:#FF725E"></path><path d="M88.21,312.74a85.64,85.64,0,0,0-39.35-37.61,54.08,54.08,0,0,0,39.5,37.78" style="fill:#FF725E"></path><path d="M90.2,318.58c-9.69.28-19.5-.06-28.87-2.54S43,308.79,36.74,301.37a96.45,96.45,0,0,1,53.31,16.27" style="fill:#FF725E"></path><path d="M85.28,299.32c4.92-18.44,13-31.19,27.53-41.52a38.33,38.33,0,0,1-27.53,41.52" style="fill:#FF725E"></path><path d="M121.86,331.12a27.28,27.28,0,0,0-16.58-25.28c.81,9.52,8.29,20.53,16.58,25.28" style="fill:#FF725E"></path><path d="M126.49,315.57a40.68,40.68,0,0,1,26.64-34.69c-3.35,15.41-12.25,28.24-26.64,34.69" style="fill:#FF725E"></path><path d="M119.51,343.16c3.42-4.89,9-7.93,14.77-9.44s11.8-1.65,17.76-1.77A41.53,41.53,0,0,1,120,345.31" style="fill:#FF725E"></path><path d="M112.59,382.45a45.5,45.5,0,0,1,55.56,26.33C148,405,128.05,396,112.59,382.45" style="fill:#FF725E"></path><path d="M90.44,368.8c3.35,9.91,2.7,21.89-4.75,30.43a36.34,36.34,0,0,1,4.75-30.43" style="fill:#FF725E"></path><path d="M77.34,363.29a37.28,37.28,0,0,1-20.59,30.26,2.34,2.34,0,0,1-1.82.3c-.91-.37-1-1.61-.88-2.59,1.46-12.69,10.87-25,23.29-28" style="fill:#FF725E"></path><path d="M68.79,362a30.58,30.58,0,0,1-44.67.23c14.2-1.55,30.58-2.59,44.67-.23" style="fill:#FF725E"></path><path d="M66.66,248.49s0,.15.13.42l.44,1.2c.4,1.08,1,2.62,1.71,4.6s1.65,4.44,2.67,7.29l1.64,4.56L75,271.69c2.52,7.19,5.31,15.82,8.33,25.43s6.07,20.25,9.13,31.47,5.69,22,8,31.78,4.12,18.69,5.49,26.19q.53,2.81,1,5.34t.81,4.77c.51,3,.95,5.55,1.25,7.66s.57,3.71.74,4.85q.14.79.21,1.26a2.72,2.72,0,0,0,.09.43,2.43,2.43,0,0,0,0-.44c0-.31-.09-.73-.16-1.26-.15-1.14-.36-2.78-.64-4.87s-.67-4.69-1.16-7.68c-.24-1.49-.5-3.09-.77-4.78s-.63-3.48-1-5.35c-1.33-7.51-3.19-16.39-5.38-26.23S96,339.68,93,328.44,86.82,306.6,83.83,297s-5.88-18.23-8.44-25.4q-1-2.7-1.81-5.13l-1.69-4.55c-1-2.84-2-5.28-2.75-7.26s-1.39-3.49-1.81-4.56c-.21-.5-.37-.89-.48-1.18A3,3,0,0,0,66.66,248.49Z" style="fill:#263238"></path><path d="M144.66,289.11s-.09.07-.25.23l-.68.71c-.59.63-1.45,1.58-2.52,2.83A98.46,98.46,0,0,0,132.85,304a74.82,74.82,0,0,0-8.74,18.71c-2.35,7.44-3.8,15.9-5.25,24.75-2.88,17.7-6.43,33.56-9,45-1.29,5.71-2.34,10.34-3.08,13.58-.35,1.57-.62,2.81-.81,3.69-.09.4-.15.72-.2,1a1.05,1.05,0,0,0,0,.33s0-.11.1-.32.15-.56.25-.95l.92-3.67c.77-3.24,1.88-7.85,3.24-13.55,2.66-11.45,6.27-27.3,9.16-45,1.45-8.85,2.88-17.29,5.18-24.7a75.68,75.68,0,0,1,8.59-18.64,108.93,108.93,0,0,1,8.2-11.22c1-1.26,1.88-2.23,2.44-2.88l.64-.75Z" style="fill:#263238"></path><path d="M64.55,361.4a1.74,1.74,0,0,0,.51.09l1.47.17,1.06.1,1.26.19c.9.13,1.93.27,3,.51l1.77.36,1.89.47c1.31.3,2.67.78,4.12,1.22a61.35,61.35,0,0,1,9,4,51.22,51.22,0,0,1,8.06,5.6,38.41,38.41,0,0,1,3.09,3,32.77,32.77,0,0,1,2.45,2.82,29.38,29.38,0,0,1,1.81,2.5,17.24,17.24,0,0,1,1.24,2l.75,1.27c.18.29.28.44.3.43a1.56,1.56,0,0,0-.2-.47l-.67-1.33a15.44,15.44,0,0,0-1.17-2,26.41,26.41,0,0,0-1.76-2.56,29.72,29.72,0,0,0-2.42-2.9,40.62,40.62,0,0,0-3.09-3A49.41,49.41,0,0,0,88.92,368a58,58,0,0,0-9.1-4c-1.46-.42-2.83-.89-4.16-1.17l-1.91-.45L72,362.09c-1.13-.23-2.17-.34-3.08-.44l-1.26-.15-1.07-.05-1.48-.06A1.89,1.89,0,0,0,64.55,361.4Z" style="fill:#263238"></path><path d="M60.5,289.45a6.82,6.82,0,0,0,1,1L64.45,293c2.48,2.12,5.94,5,9.77,8.21s7.34,6,9.88,8.08l3,2.41a8.11,8.11,0,0,0,1.16.82,7.3,7.3,0,0,0-1-1L84.34,309c-2.48-2.12-5.93-5-9.77-8.2s-7.33-6-9.87-8.08l-3-2.41A6.94,6.94,0,0,0,60.5,289.45Z" style="fill:#263238"></path><path d="M57,308.23c0,.15,7.42,2.47,16.65,5.2s16.77,4.83,16.81,4.69-7.41-2.48-16.65-5.21S57.06,308.09,57,308.23Z" style="fill:#263238"></path><path d="M84.54,300.75a5.78,5.78,0,0,0,.77-1.07l2-3c1.66-2.52,4-6,6.83-9.63s5.5-6.85,7.48-9.13l2.36-2.69a5.88,5.88,0,0,0,.83-1,6,6,0,0,0-1,.88c-.61.6-1.46,1.48-2.49,2.59-2.07,2.21-4.82,5.38-7.63,9.05s-5.14,7.17-6.73,9.75c-.79,1.29-1.41,2.35-1.82,3.09A7.08,7.08,0,0,0,84.54,300.75Z" style="fill:#263238"></path><path d="M110.43,311.18a26.69,26.69,0,0,0,1.75,2.88c1.12,1.75,2.63,4.18,4.19,6.93s2.89,5.29,3.82,7.15a25.89,25.89,0,0,0,1.58,3,17.13,17.13,0,0,0-1.23-3.14c-.85-1.9-2.12-4.48-3.7-7.25s-3.14-5.18-4.34-6.88A17.69,17.69,0,0,0,110.43,311.18Z" style="fill:#263238"></path><path d="M119.29,343.67c0,.07,1.46-.62,3.79-1.67s5.58-2.42,9.25-3.7,7.07-2.25,9.55-2.88,4-1,4-1.05a4,4,0,0,0-1.11.11c-.71.11-1.73.3-3,.57a82.77,82.77,0,0,0-18.87,6.6c-1.15.57-2.07,1.06-2.69,1.42A4.31,4.31,0,0,0,119.29,343.67Z" style="fill:#263238"></path><path d="M112.32,382.51s.15.08.46.16l1.34.34,5,1.15a162.32,162.32,0,0,1,16.19,4.27,71.7,71.7,0,0,1,15.11,7.1c1.81,1.15,3.22,2.17,4.17,2.9a16.14,16.14,0,0,0,1.5,1.11s-.11-.14-.34-.36-.57-.54-1-.92a45,45,0,0,0-4.09-3.05,66.09,66.09,0,0,0-15.14-7.29,135.27,135.27,0,0,0-16.29-4.14l-5-1A15.25,15.25,0,0,0,112.32,382.51Z" style="fill:#263238"></path><path d="M87.1,392.09c.15,0,1-5.21,2-11.68s1.6-11.74,1.45-11.76-1,5.21-2,11.68S87,392.07,87.1,392.09Z" style="fill:#263238"></path><path d="M60.84,382.56a27.72,27.72,0,0,0,2.37-2.81c1.42-1.77,3.38-4.2,5.61-6.85s4.28-5,5.78-6.7A29.16,29.16,0,0,0,77,363.38a3.73,3.73,0,0,0-.76.65c-.46.43-1.1,1.09-1.89,1.91-1.57,1.64-3.68,4-5.91,6.61s-4.15,5.13-5.49,7c-.68.92-1.21,1.67-1.56,2.19A3.65,3.65,0,0,0,60.84,382.56Z" style="fill:#263238"></path><polygon points="130.33 406.91 130.33 419.88 127.08 419.88 115.55 456.28 89.98 456.28 78.81 420.24 74.48 419.88 74.48 406.91 130.33 406.91" style="fill:#FF725E"></polygon><g style="opacity:0.30000000000000004"><polygon points="130.33 406.91 130.33 419.88 127.08 419.88 115.55 456.28 89.98 456.28 78.81 420.24 74.48 419.88 74.48 406.91 130.33 406.91"></polygon></g><path d="M76.64,420.24c0,.15,11.3.27,25.22.27s25.22-.12,25.22-.27-11.29-.27-25.22-.27S76.64,420.09,76.64,420.24Z" style="fill:#263238"></path><path d="M58.25,336.79a10,10,0,0,0,1.64.44l4.49,1.09c3.78.93,9,2.35,14.61,4.25s10.64,3.9,14.22,5.44l4.23,1.85a10.75,10.75,0,0,0,1.57.64,9.92,9.92,0,0,0-1.48-.83c-1-.5-2.39-1.19-4.17-2a150.22,150.22,0,0,0-14.19-5.61,147.14,147.14,0,0,0-14.7-4.11c-1.91-.42-3.46-.73-4.54-.91A9.54,9.54,0,0,0,58.25,336.79Z" style="fill:#263238"></path><path d="M85.13,440.45c0,.15,7.93.27,17.7.27s17.69-.12,17.69-.27-7.92-.27-17.69-.27S85.13,440.3,85.13,440.45Z" style="fill:#fafafa"></path><path d="M84.14,437.44c0,.15,8.4.27,18.75.27s18.75-.12,18.75-.27-8.39-.27-18.75-.27S84.14,437.29,84.14,437.44Z" style="fill:#fafafa"></path></g><g id="freepik--Floor--inject-150"><path d="M709.46,456.48c0,.15-152.44.27-340.44.27s-340.48-.12-340.48-.27S181,456.22,369,456.22,709.46,456.34,709.46,456.48Z" style="fill:#263238"></path></g><g id="freepik--speech-bubbles--inject-150"><polygon points="616.04 76.13 348.05 76.13 348.05 242.09 573.65 242.09 587.62 274.22 600 242.09 616.04 242.09 616.04 76.13" style="fill:#fafafa"></polygon><path d="M616,76.12c0,1.61.07,64,.2,166v.2H600l.19-.13c-3.87,10.07-8.05,20.92-12.37,32.13l-.19.51-.22-.5c-4.38-10.06-9.11-20.95-14-32.13l.21.14-204,0H347.79v-.26c0-59.15,0-115.28,0-166v-.23h.24l268,.23-268,.24.24-.24c0,50.69,0,106.82,0,166l-.26-.26h21.58l204,0h.15l.06.14,14,32.14h-.41L599.81,242l.05-.14H616l-.2.2C616,140.08,616,77.73,616,76.12Z" style="fill:#263238"></path><path d="M615.9,92.32c0,.2-59.88.37-133.72.37s-133.73-.17-133.73-.37S408.32,92,482.18,92,615.9,92.12,615.9,92.32Z" style="fill:#263238"></path><path d="M362.29,85a2.2,2.2,0,1,1-2.19-2.2A2.2,2.2,0,0,1,362.29,85Z" style="fill:#263238"></path><path d="M370.24,85a2.2,2.2,0,1,1-2.19-2.2A2.2,2.2,0,0,1,370.24,85Z" style="fill:#263238"></path><path d="M378.19,85a2.2,2.2,0,1,1-2.2-2.2A2.2,2.2,0,0,1,378.19,85Z" style="fill:#263238"></path><path d="M377.28,122l-6.36,2.46,6.36,2.45v1.49l-8-3.17V123.7l8-3.18Z" style="fill:#263238"></path><path d="M383.9,115.65h1.56l-5.92,16.88H378Z" style="fill:#263238"></path><path d="M394,123.7v1.54l-8,3.17v-1.49l6.38-2.45L386,122v-1.49Z" style="fill:#263238"></path><path d="M396.06,129.61a1.2,1.2,0,0,1,1.22-1.22,1.18,1.18,0,0,1,1.19,1.22,1.2,1.2,0,0,1-1.19,1.24A1.22,1.22,0,0,1,396.06,129.61Z" style="fill:#263238"></path><path d="M400.14,129.61a1.19,1.19,0,0,1,1.22-1.22,1.18,1.18,0,0,1,1.18,1.22,1.2,1.2,0,0,1-1.18,1.24A1.21,1.21,0,0,1,400.14,129.61Z" style="fill:#263238"></path><path d="M404.21,129.61a1.19,1.19,0,0,1,1.22-1.22,1.18,1.18,0,0,1,1.18,1.22,1.2,1.2,0,0,1-1.18,1.24A1.21,1.21,0,0,1,404.21,129.61Z" style="fill:#263238"></path><path d="M546.5,145.71c0,.2-39.61.36-88.47.36s-88.48-.16-88.48-.36,39.61-.37,88.48-.37S546.5,145.5,546.5,145.71Z" style="fill:#455a64"></path><path d="M575.4,146.23c0,.2-3.8.37-8.5.37s-8.5-.17-8.5-.37,3.81-.37,8.5-.37S575.4,146,575.4,146.23Z" style="fill:#263238"></path><path d="M600.25,146.23c0,.2-4.16.37-9.28.37s-9.29-.17-9.29-.37,4.16-.37,9.29-.37S600.25,146,600.25,146.23Z" style="fill:#263238"></path><path d="M482.23,160.62c0,.2-25.18.36-56.24.36s-56.23-.16-56.23-.36,25.17-.37,56.23-.37S482.23,160.41,482.23,160.62Z" style="fill:#455a64"></path><path d="M481.42,216.25c0,.2-25.18.36-56.23.36s-56.24-.16-56.24-.36,25.18-.37,56.24-.37S481.42,216.05,481.42,216.25Z" style="fill:#455a64"></path><path d="M523.09,160.62c0,.2-6.85.36-15.3.36s-15.3-.16-15.3-.36,6.85-.37,15.3-.37S523.09,160.41,523.09,160.62Z" style="fill:#263238"></path><path d="M522.77,216.25c0,.2-6.85.36-15.3.36s-15.3-.16-15.3-.36,6.85-.37,15.3-.37S522.77,216.05,522.77,216.25Z" style="fill:#263238"></path><path d="M377.14,168.2c0,.2-1.7.37-3.8.37s-3.79-.17-3.79-.37,1.7-.36,3.79-.36S377.14,168,377.14,168.2Z" style="fill:#FF725E"></path><path d="M403.29,168.36c0,.2-3.69.36-8.24.36s-8.24-.16-8.24-.36,3.69-.37,8.24-.37S403.29,168.16,403.29,168.36Z" style="fill:#263238"></path><path d="M420,168.36c0,.2-3.16.36-7.06.36s-7.06-.16-7.06-.36,3.16-.37,7.06-.37S420,168.16,420,168.36Z" style="fill:#263238"></path><path d="M441.22,168.36c0,.2-3.22.36-7.19.36s-7.2-.16-7.2-.36,3.22-.37,7.2-.37S441.22,168.16,441.22,168.36Z" style="fill:#263238"></path><path d="M459.79,168.36c0,.2-2.93.36-6.54.36s-6.54-.16-6.54-.36,2.93-.37,6.54-.37S459.79,168.16,459.79,168.36Z" style="fill:#263238"></path><path d="M521.26,168.36c0,.2-12.88.36-28.77.36s-28.78-.16-28.78-.36,12.88-.37,28.78-.37S521.26,168.16,521.26,168.36Z" style="fill:#263238"></path><path d="M376.09,177.88c0,.2-1.46.37-3.27.37s-3.27-.17-3.27-.37,1.46-.37,3.27-.37S376.09,177.68,376.09,177.88Z" style="fill:#FF725E"></path><path d="M376.35,187.82c0,.2-1.52.37-3.4.37s-3.4-.17-3.4-.37,1.52-.37,3.4-.37S376.35,187.62,376.35,187.82Z" style="fill:#FF725E"></path><path d="M376.35,199.07c0,.2-1.52.36-3.4.36s-3.4-.16-3.4-.36,1.52-.37,3.4-.37S376.35,198.86,376.35,199.07Z" style="fill:#FF725E"></path><path d="M438.34,198.54c0,.21-11.36.37-25.37.37s-25.37-.16-25.37-.37,11.36-.36,25.37-.36S438.34,198.34,438.34,198.54Z" style="fill:#263238"></path><path d="M433.9,187.82c0,.2-10.84.37-24.2.37s-24.19-.17-24.19-.37,10.83-.37,24.19-.37S433.9,187.62,433.9,187.82Z" style="fill:#263238"></path><path d="M550.82,177.36c0,.2-36.9.36-82.39.36s-82.4-.16-82.4-.36,36.88-.37,82.4-.37S550.82,177.15,550.82,177.36Z" style="fill:#263238"></path><polygon points="632.5 144 632.5 285.04 610.57 303.33 632.5 303.33 634.66 303.33 725.26 303.33 725.26 144 632.5 144" style="fill:#fafafa"></polygon><path d="M632.5,144s.55,0,1.62,0l4.8,0,18.47,0,67.87-.1h.2v.2c0,42.57,0,98.17.06,159.33v.26H709.18l-98.61,0h-.66l.51-.43,21.94-18.29-.09.18c.05-42.17.09-77.45.12-102.2,0-12.35.05-22.07.06-28.71,0-3.3,0-5.83,0-7.56,0-.84,0-1.49,0-1.93s0-.64,0-.64,0,.23,0,.67,0,1.1,0,2c0,1.73,0,4.28,0,7.6,0,6.65,0,16.39.06,28.75,0,24.72.06,60,.11,102.06v.1l-.08.07-21.92,18.31-.16-.43,98.61,0h16.08l-.26.26c0-61.16,0-116.76.06-159.33l.2.19-67.75-.1L639,144l-4.84,0Z" style="fill:#263238"></path><path d="M640.93,151a1.88,1.88,0,1,1-1.88-1.88A1.88,1.88,0,0,1,640.93,151Z" style="fill:#263238"></path><path d="M647.73,151a1.88,1.88,0,1,1-1.88-1.88A1.88,1.88,0,0,1,647.73,151Z" style="fill:#263238"></path><path d="M654.53,151a1.88,1.88,0,1,1-1.88-1.88A1.88,1.88,0,0,1,654.53,151Z" style="fill:#263238"></path><path d="M699.76,194.47c0,.17-11.76.3-26.26.3s-26.26-.13-26.26-.3,11.75-.3,26.26-.3S699.76,194.3,699.76,194.47Z" style="fill:#FF725E"></path><path d="M710.72,207.23c0,.16-14.31.3-32,.3s-32-.14-32-.3,14.31-.3,32-.3S710.72,207.06,710.72,207.23Z" style="fill:#FF725E"></path><path d="M713.32,254.83c0,.17-15.26.3-34.08.3s-34.08-.13-34.08-.3,15.26-.3,34.08-.3S713.32,254.67,713.32,254.83Z" style="fill:#FF725E"></path><path d="M652.16,213.72a17.7,17.7,0,0,1-6.49,0,17.7,17.7,0,0,1,6.49,0Z" style="fill:#FF725E"></path><path d="M674.55,213.85c0,.17-3.16.3-7,.3s-7-.13-7-.3a83,83,0,0,1,14.1,0Z" style="fill:#FF725E"></path><path d="M688.87,213.85c0,.17-2.7.3-6,.3s-6.05-.13-6.05-.3a61.05,61.05,0,0,1,12.09,0Z" style="fill:#FF725E"></path><path d="M651.27,222a13.22,13.22,0,0,1-5.6,0,13.22,13.22,0,0,1,5.6,0Z" style="fill:#FF725E"></path><path d="M651.49,230.51a14.26,14.26,0,0,1-5.82,0,13.81,13.81,0,0,1,5.82,0Z" style="fill:#FF725E"></path><path d="M651.49,240.13a14.26,14.26,0,0,1-5.82,0,14.26,14.26,0,0,1,5.82,0Z" style="fill:#FF725E"></path><path d="M704.54,239.68c0,.17-9.72.3-21.71.3s-21.71-.13-21.71-.3,9.72-.3,21.71-.3S704.54,239.52,704.54,239.68Z" style="fill:#FF725E"></path><path d="M700.73,230.51c0,.16-9.27.3-20.7.3s-20.7-.14-20.7-.3,9.26-.31,20.7-.31S700.73,230.34,700.73,230.51Z" style="fill:#FF725E"></path><path d="M655.73,267.54a14.26,14.26,0,0,1-5.82,0,14.26,14.26,0,0,1,5.82,0Z" style="fill:#FF725E"></path><path d="M655.73,277.17a14.26,14.26,0,0,1-5.82,0,13.81,13.81,0,0,1,5.82,0Z" style="fill:#FF725E"></path><path d="M708.78,276.72c0,.16-9.72.3-21.71.3s-21.71-.14-21.71-.3,9.71-.3,21.71-.3S708.78,276.55,708.78,276.72Z" style="fill:#FF725E"></path><path d="M705,267.54c0,.17-9.27.3-20.7.3s-20.71-.13-20.71-.3,9.27-.3,20.71-.3S705,267.37,705,267.54Z" style="fill:#FF725E"></path><path d="M716.13,221.55c0,.17-12.62.3-28.18.3s-28.18-.13-28.18-.3,12.62-.3,28.18-.3S716.13,221.39,716.13,221.55Z" style="fill:#FF725E"></path><path d="M724.39,158.38c0,.16-20.37.3-45.49.3s-45.49-.14-45.49-.3,20.36-.3,45.49-.3S724.39,158.21,724.39,158.38Z" style="fill:#263238"></path><path d="M666.43,186.78a154.07,154.07,0,0,1-19.22,0c0-.17,4.3-.3,9.61-.3S666.43,186.61,666.43,186.78Z" style="fill:#FF725E"></path><path d="M655.55,169.37c0,.17-2,.3-4.53.3s-4.53-.13-4.53-.3a34.35,34.35,0,0,1,9.06,0Z" style="fill:#FF725E"></path></g></svg>